<svg version="1" xmlns="http://www.w3.org/2000/svg" width="933.333" height="933.333" viewBox="0 0 700.000000 700.000000"><path d="M237.1 45.7c-1.2 4.4-8.8 35-10.2 40.8-.6 2.2-1.4 5.7-2 7.7l-1 3.8h-105c-83.1 0-105 .3-105.3 1.2-.4 1.6-2.7 10.8-3.1 12.8-.9 3.9-7.6 30.9-8.5 34-.5 1.9-1.2 4.5-1.5 5.7-.5 1.8 1.9 4.6 13.5 16.3l14 14 .1 73.3c.1 73.6.3 82.3 1.3 88.7 1.5 9.2 2.5 14.7 2.9 16.5 4.1 16.6 5.9 21.7 13.2 36.5 3.1 6.4 11.2 20 12.4 21 .3.3 2.6 3.2 5.1 6.5 6.4 8.7 23.4 25.3 34.3 33.5 5.2 3.8 9.8 7 10.2 7 .5 0 1.6.6 2.4 1.4 2.4 2.2 19.3 10.4 27.9 13.5 13.5 5 30.6 8.6 45.2 9.6 3 .2 19.8.4 37.3.4l31.7.1-4.7 7.2c-2.7 4-5.2 7.7-5.6 8.3-.5.5-7.5 11.1-15.7 23.5s-15.2 22.9-15.7 23.5c-.4.5-3.3 4.8-6.3 9.5s-6.1 9.1-6.7 9.8c-1 1-1.3 11.1-1.3 43.8V658h504v-84l-18.7-28.1c-10.4-15.5-23-34.4-28-42L644 490V140l14-7c13.5-6.7 14-7.1 13.6-9.8-1-5.3-11.7-69.7-12.2-72.7-.2-1.7-.7-4.2-1-5.8l-.6-2.7H238.1l-1 3.7zM252 294v84l-31.7-.1c-27.7 0-32.7-.3-39.1-2-19.6-5-36.4-23-40.1-42.9-.6-3.3-1-29.2-1.1-64.3V210h112v84z"/></svg>